# xmcd
#
# Track frame offsets:
#	183
#	15815
#	27230
#	42670
#	54153
#	68188
#	80825
#	93548
#	107610
#	120810
#	138605
#	153485
#	169510
#	183090
#	198603
#	214220
#	230200
#	247320
#
# Disc length: 3543 seconds
#
# Revision: 4
# Processed by: cddbd v1.5.2PL0 Copyright (c) Steve Scherf et al.
# Submitted via: audiograbber 1.83.01
#
DISCID=f80dd512
DTITLE=Various Artist - Das Beste aus Musik liegt in der Luft - CD1
DYEAR=1900
DGENRE=Oldies
TTITLE0=Roberto Blanco - Der Puppenspieler von Mexico  1972
TTITLE1=Peter Kraus - Sugar Baby  1963
TTITLE2=Peggy March - Fly away pretty Flamingo  1977
TTITLE3=Michael Holm - Mendocino  1969
TTITLE4=Rex Gildo - Fiesta Mexicana  1972
TTITLE5=Fred Bertelmann - Der lachende Vagabund  1957
TTITLE6=Katja Ebstein - Theater  1980
TTITLE7=Costa Cordalis - Anita  1976
TTITLE8=Tina York - Wir Lassen Uns Das Singen Nicht Verbieten  1974
TTITLE9=Tony Marshall - Aud Der Straße Nach Süden  1978
TTITLE10=Bernd Clüver - Der Junge mit der Munharmonika  1972
TTITLE11=Peter Rubin - Wir zwei fahren irgendwo hin  1987
TTITLE12=Jürgen Marcus - Ein Lied Zieht Hinaus In Die Welt  1975
TTITLE13=Ireen Sher - Xanadu  1980
TTITLE14=G.G.Anderson - Weisse Rosen Schenk´ Ich Dir  1992
TTITLE15=Flippers - Angelina  1993
TTITLE16=Nicole - Mit Dir vielleicht  1992
TTITLE17=Roland Kaiser - Viva L´Amor  1990
EXTD=
EXTT0=
EXTT1=
EXTT2=
EXTT3=
EXTT4=
EXTT5=
EXTT6=
EXTT7=
EXTT8=
EXTT9=
EXTT10=
EXTT11=
EXTT12=
EXTT13=
EXTT14=
EXTT15=
EXTT16=
EXTT17=
PLAYORDER=
